<?xml version="1.0" encoding="iso-8859-1"?>
<!-- Generator: Adobe Illustrator 18.0.0, SVG Export Plug-In . SVG Version: 6.00 Build 0)  -->
<!DOCTYPE svg PUBLIC "-//W3C//DTD SVG 1.1//EN" "http://www.w3.org/Graphics/SVG/1.1/DTD/svg11.dtd">
<svg version="1.1" id="Capa_1" xmlns="http://www.w3.org/2000/svg" xmlns:xlink="http://www.w3.org/1999/xlink" x="0px" y="0px"
	 viewBox="0 0 450.567 450.567" style="enable-background:new 0 0 450.567 450.567;" xml:space="preserve">
<g>
	<path d="M99.957,136.161c-45.343,0-82.231,36.889-82.231,82.231c0,45.343,36.889,82.231,82.231,82.231s82.231-36.889,82.231-82.231
		C182.188,173.05,145.3,136.161,99.957,136.161z M104.081,146.286c6.046,0.342,11.896,1.425,17.458,3.17l-45.615,137.04
		c-5.647-1.999-10.975-4.676-15.881-7.942L104.081,146.286z M27.725,218.392c0-37.644,28.952-68.638,65.755-71.926L51.667,272.054
		C36.979,258.824,27.725,239.67,27.725,218.392z M99.957,290.623c-4.925,0-9.736-0.499-14.387-1.443l45.288-136.061
		c24.41,11.603,41.33,36.496,41.33,65.272C172.188,258.22,139.785,290.623,99.957,290.623z"/>
	<path d="M449.084,218.392c0-10.13-1.538-19.907-4.39-29.112l4.198-7.288c2.498-4.334,2.186-9.514-0.816-13.517
		c-3.003-4.003-7.893-5.754-12.747-4.569l-2.343,0.57c-17.622-26.857-47.996-44.632-82.449-44.632
		c-25.785,0-49.284,9.959-66.865,26.226H166.823c-17.582-16.267-41.081-26.226-66.866-26.226c-34.446,0-64.815,17.768-82.439,44.617
		l-2.277-0.555c-4.864-1.181-9.745,0.567-12.748,4.569c-3.002,4.002-3.315,9.181-0.817,13.517l4.149,7.201
		c-2.869,9.23-4.416,19.037-4.416,29.198c0,32.767,16.079,61.845,40.757,79.772l-13.544,25.19c-1.309,2.432-0.396,5.464,2.035,6.771
		c0.754,0.405,1.564,0.597,2.364,0.597c1.781,0,3.505-0.954,4.407-2.633l13.144-24.444c14.529,8.449,31.401,13.294,49.385,13.294
		c42.125,0,78.156-26.571,92.228-63.831l4.141,2.702l-3.915,10.933c-0.932,2.6,0.422,5.462,3.021,6.393
		c0.557,0.199,1.126,0.294,1.686,0.294c2.052,0,3.976-1.273,4.707-3.316l10.516-29.37c0.932-2.6-0.422-5.462-3.021-6.393
		c-2.598-0.93-5.462,0.422-6.393,3.022l-3.135,8.757l-4.457-2.908c0.973-3.734,1.727-7.554,2.258-11.445l27.692-10.136
		l27.614,10.108c0.531,3.901,1.287,7.73,2.262,11.474l-4.456,2.908l-3.135-8.757c-0.931-2.6-3.795-3.952-6.393-3.022
		c-2.6,0.931-3.952,3.793-3.021,6.393l10.515,29.37c0.731,2.043,2.655,3.316,4.707,3.316c0.56,0,1.129-0.095,1.686-0.294
		c2.6-0.931,3.953-3.793,3.021-6.393l-3.914-10.933l4.14-2.702c14.072,37.26,50.102,63.831,92.227,63.831
		c18.007,0,34.899-4.858,49.441-13.328l13.163,24.479c0.902,1.679,2.626,2.633,4.407,2.633c0.8,0,1.611-0.192,2.364-0.597
		c2.432-1.308,3.344-4.34,2.035-6.772l-13.566-25.229C433.028,280.195,449.084,251.135,449.084,218.392z M253.596,200.629
		l-28.313,10.364L196.892,200.6c-1.277-6.974-3.291-13.693-5.957-20.076c10.841-4.577,22.36-6.897,34.314-6.897
		c11.952,0,23.471,2.32,34.312,6.897C256.889,186.915,254.873,193.644,253.596,200.629z M263.879,171.499
		c-12.2-5.221-25.17-7.872-38.631-7.872c-13.462,0-26.432,2.651-38.633,7.872c-2.975-5.476-6.457-10.638-10.378-15.428h98.019
		C270.336,160.861,266.854,166.022,263.879,171.499z M99.957,306.94c-48.825,0-88.548-39.722-88.548-88.548
		c0-48.825,39.723-88.547,88.548-88.547s88.548,39.722,88.548,88.547C188.505,267.218,148.782,306.94,99.957,306.94z
		 M198.474,220.806c0.019-0.803,0.031-1.607,0.031-2.415c0-2.23-0.082-4.442-0.229-6.636l12.462,4.562L198.474,220.806z
		 M239.83,216.317l12.386-4.534c-0.145,2.185-0.227,4.387-0.227,6.608c0,0.798,0.011,1.594,0.03,2.387L239.83,216.317z
		 M350.536,306.94c-48.825,0-88.547-39.722-88.547-88.548c0-48.825,39.722-88.547,88.547-88.547s88.548,39.722,88.548,88.547
		C439.084,267.218,399.361,306.94,350.536,306.94z"/>
	<path d="M350.537,136.161c-45.343,0-82.231,36.889-82.231,82.231c0,45.343,36.889,82.231,82.231,82.231
		s82.231-36.889,82.231-82.231C432.768,173.05,395.88,136.161,350.537,136.161z M310.44,158.347l-28.001,84.097
		c-2.667-7.529-4.133-15.621-4.133-24.052C278.305,193.389,291.08,171.318,310.44,158.347z M288.618,255.541L323.25,151.53
		c3.67-1.503,7.491-2.708,11.432-3.594l-39.054,117.307C293.037,262.212,290.685,258.973,288.618,255.541z M303.53,273.166
		l42.225-126.829c1.583-0.104,3.174-0.176,4.783-0.176c22.029,0,41.773,9.924,55.032,25.522l-38.985,117.121
		c-5.165,1.177-10.531,1.819-16.047,1.819C332.596,290.623,316.174,284.033,303.53,273.166z M378.378,285.036l34.376-103.274
		c6.353,10.748,10.014,23.267,10.014,36.63C422.768,248.357,404.424,274.114,378.378,285.036z"/>
</g>
<g>
</g>
<g>
</g>
<g>
</g>
<g>
</g>
<g>
</g>
<g>
</g>
<g>
</g>
<g>
</g>
<g>
</g>
<g>
</g>
<g>
</g>
<g>
</g>
<g>
</g>
<g>
</g>
<g>
</g>
</svg>
