<svg xmlns="http://www.w3.org/2000/svg" height="151" width="248" viewBox="0 0 250 153">
 <g transform="matrix(1.6533 0 0 1.6533 -.30512 -.6494)">
  <path d="m22.211 1.0058v14.045l4.9889 8.0089s-14.261 5.7871-23.772 12.833l5.7733 12.621-8.4039 26.87s7.2884-5.0656 16.257-10.39v11.825s4.764-3.0368 9.3776-5.3261l-4.2124 6.4478v14.394h39.821v-29.726l13.759 21.689 13.763-21.689v29.726h39.821v-14.394l-4.2124-6.4478c4.611 2.2868 9.3738 5.3261 9.3738 5.3261v-11.825c8.9712 5.3239 16.257 10.39 16.257 10.39l-8.4049-26.87 5.7733-12.621c-9.5084-7.046-23.764-12.833-23.764-12.833l4.9821-8.0081v-14.045h-36.314l-13.488 20.967c-3.9837-0.10292-7.5695 0-7.5695 0l-13.49-20.967h-36.314zm117.4 76.587c-1.993 0-3.5849 1.5486-3.5849 3.4788 0 1.973 1.5917 3.5182 3.5849 3.5182 2.0157 0 3.5652-1.5451 3.5652-3.5182 0-1.9303-1.5495-3.4788-3.5652-3.4788zm0 0.69814c1.5488 0 2.671 1.2516 2.671 2.8003 0 1.5262-1.1212 2.7571-2.6475 2.7571-1.5713 0-2.718-1.2281-2.718-2.7768 0-1.5262 1.1457-2.7808 2.6945-2.7808zm-0.0197 1.0197c-0.57231 0-1.0186 0.04313-1.3374 0.10589v3.4788h0.80403v-1.4002h0.38043c0.4468 0 0.66033 0.17147 0.72559 0.55301 0.10542 0.40162 0.16661 0.71914 0.27455 0.84718h0.86677c-0.0853-0.12802-0.14558-0.33854-0.25101-0.87069-0.10794-0.46437-0.30043-0.72308-0.6393-0.85109v-0.03922c0.42427-0.12551 0.72173-0.4264 0.72173-0.80794 0-0.33887-0.15044-0.61279-0.34121-0.76089-0.25353-0.1481-0.54643-0.25493-1.2041-0.25493zm-0.0667 0.57263c0.50956 0 0.74127 0.2132 0.74127 0.52948 0 0.36146-0.35973 0.50988-0.80402 0.50988h-0.38044v-0.9962c0.0853-0.02259 0.23234-0.04313 0.44319-0.04313z" fill="#c1c6c8" stroke-width="2.0081"/>
  <path d="m145.66 67.75-6.1147-19.549 5.1407-11.24-0.13555-0.46688c-7.1639-4.709-14.704-8.547-23.191-11.78v-2.5126l4.9876-8.0073v-10.131h-31.605l-12.257 19.047c-2.234-0.13555-4.463-0.21085-6.682-0.21085-2.219 0-4.4479 0.0753-6.682 0.21085l-12.254-19.047h-31.605v10.131l4.9876 8.0073v2.5126c-8.4892 3.2305-16.03 7.071-23.194 11.78l-0.13304 0.46688 5.1407 11.24-6.1172 19.549 0.56478 0.42672c4.2421-2.7913 8.6951-5.3415 13.274-7.6433v11.306c3.3058-1.9654 6.81-3.7476 10.465-5.3541v4.7542l-4.9801 7.6207v10.44h33.726v-30.9c1.2199-0.1732 2.4474-0.32632 3.6849-0.46437l13.123 20.688 13.125-20.686c1.2375 0.13555 2.4649 0.28866 3.6824 0.46186v30.9h33.729v-10.44l-4.9801-7.6207v-4.7542c3.6548 1.6065 7.1564 3.3887 10.462 5.3541v-11.306c4.5785 2.2993 9.0314 4.8521 13.276 7.6433z" fill="#5d1725" stroke-width="2.5101"/>
  <path transform="matrix(1 0 0 1 -.00014945 0)" d="m75.803 26.633c-17.799 0-36.315 4.583-52.271 12.896v26.402c16.072-8.0549 34.518-12.477 52.271-12.477 17.752 0 36.199 4.4215 52.27 12.477v-26.402c-15.959-8.3135-34.476-12.896-52.27-12.896zm-45.559 1.6836c-6.9279 2.7186-13.211 5.8621-19.18 9.5996l4.5977 10.045-4.1113 13.146c2.6858-1.5412 5.4373-2.9852 8.2285-4.3457v-19.275l0.20117-0.33008 0.89258-0.47461c3.0372-1.619 6.1708-3.094 9.3711-4.4395zm91.113 0v3.9258c3.2005 1.3429 6.3319 2.8205 9.3691 4.4395l0.89453 0.47461 0.19532 0.33008v19.275c2.7912 1.3605 5.5442 2.8045 8.2324 4.3457l-4.1094-13.146 4.5918-10.045c-5.9691-3.7351-12.246-6.8786-19.174-9.5996zm-44.676 1.8652 5.4941 16.033 0.09375 0.26367 0.2793 0.02344c0.43927 0.03012 0.91678 0.06391 1.4238 0.10156v3.3262c-2.3722-0.18324-4.7667-0.29215-7.1387-0.32227v-3.3301l0.96484 0.01953 0.60352 0.0078c5e-3 -1e-6 -1.0508-3.0195-1.0508-3.0195l-0.30273-0.0078c-1.9352-0.0251-3.887-0.0039-5.8047 0.06641l-0.28125 0.01172-1.1152 3.043c0.0025-1e-6 0.63672-0.02344 0.63672-0.02344l0.96484-0.03516v3.3301c-2.2567 0.0753-4.5255 0.22609-6.7695 0.43945v-3.3223l1.293-0.125 0.27148-0.02344c0.0025-0.0025 0.09375-0.25195 0.09375-0.25195l5.7422-16.166c1.5185-0.04522 3.0603-0.05653 4.6016-0.03906zm6.2344 0.25h2e-3c5.949 0.40403 11.903 1.2969 17.727 2.6523v5.5723c-1.0667-0.2485-2.1411-0.47888-3.2129-0.69727v-2.248l-0.33984-0.0625c-0.86607-0.1732-1.7532-0.33629-2.707-0.50195l-0.49414-0.08594v12.758c0.0025 0.0025 0.34961 0.0625 0.34961 0.0625l1.293 0.23633v3.3145c-2.47-0.45433-4.977-0.82908-7.4747-1.1152v-3.3203l1.1758 0.14062 0.4707 0.05469c0.0051 5e-3 0.0039-0.4707 0.0039-0.4707v-12.275l-0.36719-0.04687c-0.86099-0.10794-1.7688-0.21376-2.6875-0.30664l-0.46679-0.042973v2.2441c-1.0868-0.10542-2.1821-0.2012-3.2715-0.27148zm-17.068 0.15039v5.5879c-1.0944 0.095385-2.1871 0.20708-3.2715 0.33008v-2.248l-0.4707 0.05469c-0.86846 0.10292-1.7805 0.22578-2.7168 0.36133l-0.36523 0.05078v12.752c0.0025 0 0.48633-0.06836 0.48633-0.06836l1.1602-0.15625v3.3223c-2.49 0.32632-4.9901 0.74714-7.4551 1.2441v-3.3145l1.2949-0.25586 0.33594-0.06641c0.0051 0 0.0059-0.34961 0.0059-0.34961v-12.412l-0.50391 0.09766c-0.93623 0.18073-1.8048 0.35276-2.6582 0.54102l-0.33398 0.07031v2.248c-1.0667 0.23093-2.1363 0.48588-3.2031 0.75195v-5.5723c5.806-1.4634 11.751-2.4567 17.695-2.9688zm37.746 3.2305 2e-3 2e-3c5.2588 1.3782 10.468 3.1574 15.496 5.291v4.4688c-1.3103-0.55223-2.6342-1.0864-3.957-1.5859v-1.1875c0 0.0025-0.27539-0.10156-0.27539-0.10156-1.6593-0.62251-3.3391-1.2086-4.9883-1.7383l-0.55273-0.17578v4.7188l0.28906 0.09375c1.727 0.55976 3.4684 1.1654 5.1777 1.8105v2.9746c-1.6215-0.60243-3.2674-1.1866-4.9141-1.7188l-0.55273-0.17578v5.082l0.28906 0.09375c1.6617 0.53466 3.331 1.1166 4.9551 1.7266l0.57227 0.21484v-1.4746c1.3213 0.50403 2.6478 1.0357 3.9551 1.5879v4.7402c-5.0353-2.121-10.243-3.8839-15.496-5.252v-3.2969l1.1191 0.29688 0.5332 0.14258c3e-3 0 4e-3 -0.55078 4e-3 -0.55078v-12.225c3e-3 0-0.31445-0.08203-0.31445-0.08203l-1.3418-0.35742zm-29.359 0.45508-0.4082 1.127-1.5723 4.3848-0.20898 0.58008 0.61719-0.01563c1.0191-0.0277 2.0495-0.04016 3.0586-0.03516h0.59961l-0.19531-0.56054-1.498-4.3457zm-31.828 0.89453c1.0267 0.66269 2.0691 1.3583 3.1133 2.0586v1.7969c-1.3655 0.37652-2.7274 0.78226-4.0703 1.209v-1.4316l-0.54883 0.17969c-1.6416 0.52712-3.3336 1.1149-5.0254 1.75l-0.27344 0.10156v4.3691l0.57227-0.2168c2.5302-0.94632 4.8197-1.7252 6.9961-2.3828l2.3496 1.5371v6.2676l-3.334 4.2109c-2.5453 0.78826-5.0946 1.6795-7.582 2.6484-0.99399-0.62502-1.9845-1.2382-2.9609-1.8281v-2.3418c1.3027-0.55223 2.6267-1.0848 3.957-1.5918v2.291l0.57422-0.2168c1.6165-0.60745 3.2912-1.1902 4.9805-1.7324l0.29492-0.09375v-5.6211l-0.55078 0.17969c-2.4874 0.80067-4.8783 1.6597-7.125 2.5508l-2.1309-1.4355v-5.1582l3.1973-4.4629c2.4649-0.95887 5.0111-1.8435 7.5664-2.6367z" fill="#fff" stroke-width="2.0081"/>
 </g>
</svg>
